%TF.GenerationSoftware,KiCad,Pcbnew,(7.0.0)*%
%TF.CreationDate,2024-12-03T23:25:58+05:30*%
%TF.ProjectId,IEEE CAS Logo,49454545-2043-4415-9320-4c6f676f2e6b,rev?*%
%TF.SameCoordinates,Original*%
%TF.FileFunction,Drillmap*%
%TF.FilePolarity,Positive*%
%FSLAX45Y45*%
G04 Gerber Fmt 4.5, Leading zero omitted, Abs format (unit mm)*
G04 Created by KiCad (PCBNEW (7.0.0)) date 2024-12-03 23:25:58*
%MOMM*%
%LPD*%
G01*
G04 APERTURE LIST*
%ADD10C,0.100000*%
%ADD11C,0.200000*%
G04 APERTURE END LIST*
D10*
X16600000Y-10100000D02*
G75*
G03*
X16600000Y-10100000I-2500000J0D01*
G01*
D11*
X11842619Y-12898476D02*
X11842619Y-12698476D01*
X11842619Y-12698476D02*
X11890238Y-12698476D01*
X11890238Y-12698476D02*
X11918809Y-12708000D01*
X11918809Y-12708000D02*
X11937857Y-12727048D01*
X11937857Y-12727048D02*
X11947381Y-12746095D01*
X11947381Y-12746095D02*
X11956905Y-12784190D01*
X11956905Y-12784190D02*
X11956905Y-12812762D01*
X11956905Y-12812762D02*
X11947381Y-12850857D01*
X11947381Y-12850857D02*
X11937857Y-12869905D01*
X11937857Y-12869905D02*
X11918809Y-12888952D01*
X11918809Y-12888952D02*
X11890238Y-12898476D01*
X11890238Y-12898476D02*
X11842619Y-12898476D01*
X12042619Y-12898476D02*
X12042619Y-12765143D01*
X12042619Y-12803238D02*
X12052143Y-12784190D01*
X12052143Y-12784190D02*
X12061667Y-12774667D01*
X12061667Y-12774667D02*
X12080714Y-12765143D01*
X12080714Y-12765143D02*
X12099762Y-12765143D01*
X12166428Y-12898476D02*
X12166428Y-12765143D01*
X12166428Y-12698476D02*
X12156905Y-12708000D01*
X12156905Y-12708000D02*
X12166428Y-12717524D01*
X12166428Y-12717524D02*
X12175952Y-12708000D01*
X12175952Y-12708000D02*
X12166428Y-12698476D01*
X12166428Y-12698476D02*
X12166428Y-12717524D01*
X12290238Y-12898476D02*
X12271190Y-12888952D01*
X12271190Y-12888952D02*
X12261667Y-12869905D01*
X12261667Y-12869905D02*
X12261667Y-12698476D01*
X12395000Y-12898476D02*
X12375952Y-12888952D01*
X12375952Y-12888952D02*
X12366428Y-12869905D01*
X12366428Y-12869905D02*
X12366428Y-12698476D01*
X12591190Y-12898476D02*
X12591190Y-12698476D01*
X12591190Y-12698476D02*
X12657857Y-12841333D01*
X12657857Y-12841333D02*
X12724524Y-12698476D01*
X12724524Y-12698476D02*
X12724524Y-12898476D01*
X12905476Y-12898476D02*
X12905476Y-12793714D01*
X12905476Y-12793714D02*
X12895952Y-12774667D01*
X12895952Y-12774667D02*
X12876905Y-12765143D01*
X12876905Y-12765143D02*
X12838809Y-12765143D01*
X12838809Y-12765143D02*
X12819762Y-12774667D01*
X12905476Y-12888952D02*
X12886428Y-12898476D01*
X12886428Y-12898476D02*
X12838809Y-12898476D01*
X12838809Y-12898476D02*
X12819762Y-12888952D01*
X12819762Y-12888952D02*
X12810238Y-12869905D01*
X12810238Y-12869905D02*
X12810238Y-12850857D01*
X12810238Y-12850857D02*
X12819762Y-12831809D01*
X12819762Y-12831809D02*
X12838809Y-12822286D01*
X12838809Y-12822286D02*
X12886428Y-12822286D01*
X12886428Y-12822286D02*
X12905476Y-12812762D01*
X13000714Y-12765143D02*
X13000714Y-12965143D01*
X13000714Y-12774667D02*
X13019762Y-12765143D01*
X13019762Y-12765143D02*
X13057857Y-12765143D01*
X13057857Y-12765143D02*
X13076905Y-12774667D01*
X13076905Y-12774667D02*
X13086428Y-12784190D01*
X13086428Y-12784190D02*
X13095952Y-12803238D01*
X13095952Y-12803238D02*
X13095952Y-12860381D01*
X13095952Y-12860381D02*
X13086428Y-12879428D01*
X13086428Y-12879428D02*
X13076905Y-12888952D01*
X13076905Y-12888952D02*
X13057857Y-12898476D01*
X13057857Y-12898476D02*
X13019762Y-12898476D01*
X13019762Y-12898476D02*
X13000714Y-12888952D01*
X13181667Y-12879428D02*
X13191190Y-12888952D01*
X13191190Y-12888952D02*
X13181667Y-12898476D01*
X13181667Y-12898476D02*
X13172143Y-12888952D01*
X13172143Y-12888952D02*
X13181667Y-12879428D01*
X13181667Y-12879428D02*
X13181667Y-12898476D01*
X13181667Y-12774667D02*
X13191190Y-12784190D01*
X13191190Y-12784190D02*
X13181667Y-12793714D01*
X13181667Y-12793714D02*
X13172143Y-12784190D01*
X13172143Y-12784190D02*
X13181667Y-12774667D01*
X13181667Y-12774667D02*
X13181667Y-12793714D01*
M02*
