%TF.GenerationSoftware,KiCad,Pcbnew,(7.0.0)*%
%TF.CreationDate,2024-12-03T23:26:00+05:30*%
%TF.ProjectId,IEEE CAS Logo,49454545-2043-4415-9320-4c6f676f2e6b,rev?*%
%TF.SameCoordinates,Original*%
%TF.FileFunction,Soldermask,Top*%
%TF.FilePolarity,Negative*%
%FSLAX46Y46*%
G04 Gerber Fmt 4.6, Leading zero omitted, Abs format (unit mm)*
G04 Created by KiCad (PCBNEW (7.0.0)) date 2024-12-03 23:26:00*
%MOMM*%
%LPD*%
G01*
G04 APERTURE LIST*
G04 Aperture macros list*
%AMRoundRect*
0 Rectangle with rounded corners*
0 $1 Rounding radius*
0 $2 $3 $4 $5 $6 $7 $8 $9 X,Y pos of 4 corners*
0 Add a 4 corners polygon primitive as box body*
4,1,4,$2,$3,$4,$5,$6,$7,$8,$9,$2,$3,0*
0 Add four circle primitives for the rounded corners*
1,1,$1+$1,$2,$3*
1,1,$1+$1,$4,$5*
1,1,$1+$1,$6,$7*
1,1,$1+$1,$8,$9*
0 Add four rect primitives between the rounded corners*
20,1,$1+$1,$2,$3,$4,$5,0*
20,1,$1+$1,$4,$5,$6,$7,0*
20,1,$1+$1,$6,$7,$8,$9,0*
20,1,$1+$1,$8,$9,$2,$3,0*%
G04 Aperture macros list end*
%ADD10C,0.200000*%
%ADD11C,1.000000*%
%ADD12R,2.000000X2.000000*%
%ADD13RoundRect,0.140000X-0.170000X0.140000X-0.170000X-0.140000X0.170000X-0.140000X0.170000X0.140000X0*%
%ADD14C,0.200000*%
%ADD15RoundRect,0.150000X-0.825000X-0.150000X0.825000X-0.150000X0.825000X0.150000X-0.825000X0.150000X0*%
%ADD16R,1.350000X1.350000*%
%ADD17O,1.350000X1.350000*%
%ADD18R,1.500000X1.500000*%
%ADD19R,1.000000X1.000000*%
%ADD20O,1.000000X1.000000*%
%ADD21R,1.600000X0.550000*%
%ADD22R,0.550000X1.600000*%
%ADD23RoundRect,0.225000X-0.250000X0.225000X-0.250000X-0.225000X0.250000X-0.225000X0.250000X0.225000X0*%
%ADD24R,1.150000X1.000000*%
%ADD25RoundRect,0.125000X-0.537500X-0.125000X0.537500X-0.125000X0.537500X0.125000X-0.537500X0.125000X0*%
%ADD26RoundRect,0.225000X-0.225000X-0.375000X0.225000X-0.375000X0.225000X0.375000X-0.225000X0.375000X0*%
%ADD27R,0.600000X1.200000*%
%ADD28RoundRect,0.150000X0.150000X0.200000X-0.150000X0.200000X-0.150000X-0.200000X0.150000X-0.200000X0*%
%ADD29R,1.500000X0.300000*%
%ADD30R,0.300000X1.500000*%
%ADD31RoundRect,0.050000X-0.350000X-0.050000X0.350000X-0.050000X0.350000X0.050000X-0.350000X0.050000X0*%
%ADD32RoundRect,0.050000X-0.050000X-0.350000X0.050000X-0.350000X0.050000X0.350000X-0.050000X0.350000X0*%
%ADD33R,4.000000X4.000000*%
%ADD34R,4.500000X2.000000*%
%ADD35R,0.850000X0.850000*%
%ADD36O,0.850000X0.850000*%
%ADD37R,2.000000X1.500000*%
%ADD38R,2.000000X3.800000*%
%ADD39RoundRect,0.250000X-0.650000X0.325000X-0.650000X-0.325000X0.650000X-0.325000X0.650000X0.325000X0*%
%ADD40C,0.750000*%
%ADD41R,0.400000X0.300000*%
%ADD42R,1.400000X1.600000*%
%ADD43R,0.800000X0.600000*%
%ADD44RoundRect,0.250000X-1.100000X0.325000X-1.100000X-0.325000X1.100000X-0.325000X1.100000X0.325000X0*%
%ADD45RoundRect,0.150000X-0.587500X-0.150000X0.587500X-0.150000X0.587500X0.150000X-0.587500X0.150000X0*%
%ADD46RoundRect,0.250000X-2.450000X0.650000X-2.450000X-0.650000X2.450000X-0.650000X2.450000X0.650000X0*%
%ADD47R,3.000000X3.000000*%
%ADD48R,1.700000X1.700000*%
%ADD49O,1.700000X1.700000*%
%ADD50R,1.400000X1.200000*%
%ADD51RoundRect,0.100000X-0.100000X0.130000X-0.100000X-0.130000X0.100000X-0.130000X0.100000X0.130000X0*%
%ADD52R,0.700000X0.340000*%
%ADD53RoundRect,0.250000X-0.475000X0.250000X-0.475000X-0.250000X0.475000X-0.250000X0.475000X0.250000X0*%
G04 APERTURE END LIST*
D10*
X141450000Y-90200000D02*
X141600000Y-90200000D01*
X141600000Y-90200000D02*
X141600000Y-94200000D01*
X141600000Y-94200000D02*
X141450000Y-94200000D01*
X141450000Y-94200000D02*
X141450000Y-90200000D01*
G36*
X141450000Y-90200000D02*
G01*
X141600000Y-90200000D01*
X141600000Y-94200000D01*
X141450000Y-94200000D01*
X141450000Y-90200000D01*
G37*
X151500000Y-90200000D02*
X153500000Y-90200000D01*
X153500000Y-90200000D02*
X153500000Y-94200000D01*
X153500000Y-94200000D02*
X151500000Y-94200000D01*
X151500000Y-94200000D02*
X151500000Y-90200000D01*
G36*
X151500000Y-90200000D02*
G01*
X153500000Y-90200000D01*
X153500000Y-94200000D01*
X151500000Y-94200000D01*
X151500000Y-90200000D01*
G37*
X149500000Y-90200000D02*
X151000000Y-90200000D01*
X151000000Y-90200000D02*
X151000000Y-94200000D01*
X151000000Y-94200000D02*
X149500000Y-94200000D01*
X149500000Y-94200000D02*
X149500000Y-90200000D01*
G36*
X149500000Y-90200000D02*
G01*
X151000000Y-90200000D01*
X151000000Y-94200000D01*
X149500000Y-94200000D01*
X149500000Y-90200000D01*
G37*
X146700000Y-90200000D02*
X147500000Y-90200000D01*
X147500000Y-90200000D02*
X147500000Y-94200000D01*
X147500000Y-94200000D02*
X146700000Y-94200000D01*
X146700000Y-94200000D02*
X146700000Y-90200000D01*
G36*
X146700000Y-90200000D02*
G01*
X147500000Y-90200000D01*
X147500000Y-94200000D01*
X146700000Y-94200000D01*
X146700000Y-90200000D01*
G37*
X144600000Y-90200000D02*
X145000000Y-90200000D01*
X145000000Y-90200000D02*
X145000000Y-94200000D01*
X145000000Y-94200000D02*
X144600000Y-94200000D01*
X144600000Y-94200000D02*
X144600000Y-90200000D01*
G36*
X144600000Y-90200000D02*
G01*
X145000000Y-90200000D01*
X145000000Y-94200000D01*
X144600000Y-94200000D01*
X144600000Y-90200000D01*
G37*
X148000000Y-90200000D02*
X149000000Y-90200000D01*
X149000000Y-90200000D02*
X149000000Y-94200000D01*
X149000000Y-94200000D02*
X148000000Y-94200000D01*
X148000000Y-94200000D02*
X148000000Y-90200000D01*
G36*
X148000000Y-90200000D02*
G01*
X149000000Y-90200000D01*
X149000000Y-94200000D01*
X148000000Y-94200000D01*
X148000000Y-90200000D01*
G37*
D11*
X165500000Y-101000000D02*
G75*
G03*
X165500000Y-101000000I-24500000J0D01*
G01*
D10*
X142500000Y-90200000D02*
X142700000Y-90200000D01*
X142700000Y-90200000D02*
X142700000Y-94200000D01*
X142700000Y-94200000D02*
X142500000Y-94200000D01*
X142500000Y-94200000D02*
X142500000Y-90200000D01*
G36*
X142500000Y-90200000D02*
G01*
X142700000Y-90200000D01*
X142700000Y-94200000D01*
X142500000Y-94200000D01*
X142500000Y-90200000D01*
G37*
X143600000Y-90200000D02*
X143900000Y-90200000D01*
X143900000Y-90200000D02*
X143900000Y-94200000D01*
X143900000Y-94200000D02*
X143600000Y-94200000D01*
X143600000Y-94200000D02*
X143600000Y-90200000D01*
G36*
X143600000Y-90200000D02*
G01*
X143900000Y-90200000D01*
X143900000Y-94200000D01*
X143600000Y-94200000D01*
X143600000Y-90200000D01*
G37*
X145600000Y-90200000D02*
X146200000Y-90200000D01*
X146200000Y-90200000D02*
X146200000Y-94200000D01*
X146200000Y-94200000D02*
X145600000Y-94200000D01*
X145600000Y-94200000D02*
X145600000Y-90200000D01*
G36*
X145600000Y-90200000D02*
G01*
X146200000Y-90200000D01*
X146200000Y-94200000D01*
X145600000Y-94200000D01*
X145600000Y-90200000D01*
G37*
D12*
%TO.C,REF\u002A\u002A*%
X142999999Y-106299999D03*
%TD*%
D13*
%TO.C,REF\u002A\u002A*%
X152000000Y-81090000D03*
X152000000Y-82050000D03*
%TD*%
D14*
%TO.C,REF\u002A\u002A*%
X149299000Y-111318250D03*
X149299000Y-110752250D03*
X149299000Y-110186250D03*
X149582000Y-111035250D03*
X149582000Y-110469250D03*
X149865000Y-111318250D03*
X149865000Y-110186250D03*
X150148000Y-111035250D03*
X150148000Y-110469250D03*
X150431000Y-111318250D03*
X150431000Y-110752250D03*
X150431000Y-110186250D03*
%TD*%
D15*
%TO.C,REF\u002A\u002A*%
X153025000Y-105395000D03*
X153025000Y-106665000D03*
X153025000Y-107935000D03*
X153025000Y-109205000D03*
X157975000Y-109205000D03*
X157975000Y-107935000D03*
X157975000Y-106665000D03*
X157975000Y-105395000D03*
%TD*%
D16*
%TO.C,REF\u002A\u002A*%
X162599999Y-95099999D03*
D17*
X160599999Y-95099999D03*
%TD*%
D18*
%TO.C,REF\u002A\u002A*%
X145799999Y-106599999D03*
%TD*%
D19*
%TO.C,REF\u002A\u002A*%
X161649999Y-91999999D03*
D20*
X160379999Y-91999999D03*
%TD*%
D21*
%TO.C,REF\u002A\u002A*%
X136749999Y-112799999D03*
X136749999Y-113599999D03*
X136749999Y-114399999D03*
X136749999Y-115199999D03*
X136749999Y-115999999D03*
X136749999Y-116799999D03*
X136749999Y-117599999D03*
X136749999Y-118399999D03*
D22*
X138199999Y-119849999D03*
X138999999Y-119849999D03*
X139799999Y-119849999D03*
X140599999Y-119849999D03*
X141399999Y-119849999D03*
X142199999Y-119849999D03*
X142999999Y-119849999D03*
X143799999Y-119849999D03*
D21*
X145249999Y-118399999D03*
X145249999Y-117599999D03*
X145249999Y-116799999D03*
X145249999Y-115999999D03*
X145249999Y-115199999D03*
X145249999Y-114399999D03*
X145249999Y-113599999D03*
X145249999Y-112799999D03*
D22*
X143799999Y-111349999D03*
X142999999Y-111349999D03*
X142199999Y-111349999D03*
X141399999Y-111349999D03*
X140599999Y-111349999D03*
X139799999Y-111349999D03*
X138999999Y-111349999D03*
X138199999Y-111349999D03*
%TD*%
D23*
%TO.C,REF\u002A\u002A*%
X149365000Y-79825000D03*
X149365000Y-81375000D03*
%TD*%
D24*
%TO.C,REF\u002A\u002A*%
X119824999Y-94299999D03*
X121574999Y-94299999D03*
X121574999Y-92899999D03*
X119824999Y-92899999D03*
%TD*%
D25*
%TO.C,REF\u002A\u002A*%
X129462500Y-108375000D03*
X129462500Y-109025000D03*
X129462500Y-109675000D03*
X129462500Y-110325000D03*
X131737500Y-110325000D03*
X131737500Y-109675000D03*
X131737500Y-109025000D03*
X131737500Y-108375000D03*
%TD*%
D26*
%TO.C,REF\u002A\u002A*%
X160550000Y-101500000D03*
X163850000Y-101500000D03*
%TD*%
D27*
%TO.C,REF\u002A\u002A*%
X120599999Y-90899999D03*
X121799999Y-90899999D03*
%TD*%
D28*
%TO.C,REF\u002A\u002A*%
X162400000Y-103600000D03*
X163800000Y-103600000D03*
%TD*%
D19*
%TO.C,REF\u002A\u002A*%
X148099999Y-106799999D03*
%TD*%
D29*
%TO.C,REF\u002A\u002A*%
X134299999Y-110849999D03*
X134299999Y-111349999D03*
X134299999Y-111849999D03*
X134299999Y-112349999D03*
X134299999Y-112849999D03*
X134299999Y-113349999D03*
X134299999Y-113849999D03*
X134299999Y-114349999D03*
X134299999Y-114849999D03*
X134299999Y-115349999D03*
X134299999Y-115849999D03*
X134299999Y-116349999D03*
X134299999Y-116849999D03*
X134299999Y-117349999D03*
X134299999Y-117849999D03*
X134299999Y-118349999D03*
X134299999Y-118849999D03*
X134299999Y-119349999D03*
X134299999Y-119849999D03*
X134299999Y-120349999D03*
D30*
X136249999Y-122299999D03*
X136749999Y-122299999D03*
X137249999Y-122299999D03*
X137749999Y-122299999D03*
X138249999Y-122299999D03*
X138749999Y-122299999D03*
X139249999Y-122299999D03*
X139749999Y-122299999D03*
X140249999Y-122299999D03*
X140749999Y-122299999D03*
X141249999Y-122299999D03*
X141749999Y-122299999D03*
X142249999Y-122299999D03*
X142749999Y-122299999D03*
X143249999Y-122299999D03*
X143749999Y-122299999D03*
X144249999Y-122299999D03*
X144749999Y-122299999D03*
X145249999Y-122299999D03*
X145749999Y-122299999D03*
D29*
X147699999Y-120349999D03*
X147699999Y-119849999D03*
X147699999Y-119349999D03*
X147699999Y-118849999D03*
X147699999Y-118349999D03*
X147699999Y-117849999D03*
X147699999Y-117349999D03*
X147699999Y-116849999D03*
X147699999Y-116349999D03*
X147699999Y-115849999D03*
X147699999Y-115349999D03*
X147699999Y-114849999D03*
X147699999Y-114349999D03*
X147699999Y-113849999D03*
X147699999Y-113349999D03*
X147699999Y-112849999D03*
X147699999Y-112349999D03*
X147699999Y-111849999D03*
X147699999Y-111349999D03*
X147699999Y-110849999D03*
D30*
X145749999Y-108899999D03*
X145249999Y-108899999D03*
X144749999Y-108899999D03*
X144249999Y-108899999D03*
X143749999Y-108899999D03*
X143249999Y-108899999D03*
X142749999Y-108899999D03*
X142249999Y-108899999D03*
X141749999Y-108899999D03*
X141249999Y-108899999D03*
X140749999Y-108899999D03*
X140249999Y-108899999D03*
X139749999Y-108899999D03*
X139249999Y-108899999D03*
X138749999Y-108899999D03*
X138249999Y-108899999D03*
X137749999Y-108899999D03*
X137249999Y-108899999D03*
X136749999Y-108899999D03*
X136249999Y-108899999D03*
%TD*%
D31*
%TO.C,REF\u002A\u002A*%
X125650000Y-112700000D03*
X125650000Y-113100000D03*
X125650000Y-113500000D03*
X125650000Y-113900000D03*
X125650000Y-114300000D03*
X125650000Y-114700000D03*
X125650000Y-115100000D03*
X125650000Y-115500000D03*
X125650000Y-115900000D03*
X125650000Y-116300000D03*
X125650000Y-116700000D03*
X125650000Y-117100000D03*
X125650000Y-117500000D03*
X125650000Y-117900000D03*
D32*
X126500000Y-118750000D03*
X126900000Y-118750000D03*
X127300000Y-118750000D03*
X127700000Y-118750000D03*
X128100000Y-118750000D03*
X128500000Y-118750000D03*
X128900000Y-118750000D03*
X129300000Y-118750000D03*
X129700000Y-118750000D03*
X130100000Y-118750000D03*
X130500000Y-118750000D03*
X130900000Y-118750000D03*
X131300000Y-118750000D03*
X131700000Y-118750000D03*
D31*
X132550000Y-117900000D03*
X132550000Y-117500000D03*
X132550000Y-117100000D03*
X132550000Y-116700000D03*
X132550000Y-116300000D03*
X132550000Y-115900000D03*
X132550000Y-115500000D03*
X132550000Y-115100000D03*
X132550000Y-114700000D03*
X132550000Y-114300000D03*
X132550000Y-113900000D03*
X132550000Y-113500000D03*
X132550000Y-113100000D03*
X132550000Y-112700000D03*
D32*
X131700000Y-111850000D03*
X131300000Y-111850000D03*
X130900000Y-111850000D03*
X130500000Y-111850000D03*
X130100000Y-111850000D03*
X129700000Y-111850000D03*
X129300000Y-111850000D03*
X128900000Y-111850000D03*
X128500000Y-111850000D03*
X128100000Y-111850000D03*
X127700000Y-111850000D03*
X127300000Y-111850000D03*
X126900000Y-111850000D03*
X126500000Y-111850000D03*
D33*
X129099999Y-115299999D03*
%TD*%
D34*
%TO.C,REF\u002A\u002A*%
X126549999Y-100799999D03*
X135049999Y-100799999D03*
%TD*%
D35*
%TO.C,REF\u002A\u002A*%
X160499999Y-89299999D03*
D36*
X159499999Y-89299999D03*
%TD*%
D37*
%TO.C,REF\u002A\u002A*%
X120549999Y-105199999D03*
X120549999Y-107499999D03*
X120549999Y-109799999D03*
D38*
X126849999Y-107499999D03*
%TD*%
D39*
%TO.C,REF\u002A\u002A*%
X144050000Y-78775000D03*
X144050000Y-81725000D03*
%TD*%
D40*
%TO.C,REF\u002A\u002A*%
X150360000Y-113360000D03*
X151630000Y-113360000D03*
X152900000Y-113360000D03*
X154170000Y-113360000D03*
X155440000Y-113360000D03*
X150360000Y-114630000D03*
X151630000Y-114630000D03*
X152900000Y-114630000D03*
X154170000Y-114630000D03*
X155440000Y-114630000D03*
X150360000Y-115900000D03*
X151630000Y-115900000D03*
X152900000Y-115900000D03*
X154170000Y-115900000D03*
X155440000Y-115900000D03*
X150360000Y-117170000D03*
X151630000Y-117170000D03*
X152900000Y-117170000D03*
X154170000Y-117170000D03*
X155440000Y-117170000D03*
X150360000Y-118440000D03*
X151630000Y-118440000D03*
X152900000Y-118440000D03*
X154170000Y-118440000D03*
X155440000Y-118440000D03*
%TD*%
D41*
%TO.C,REF\u002A\u002A*%
X157599999Y-112149999D03*
X157599999Y-112649999D03*
X157599999Y-113149999D03*
X157599999Y-113649999D03*
X160198039Y-113650424D03*
X160198039Y-113150424D03*
X160198039Y-112650424D03*
X160198039Y-112150424D03*
D42*
X158902999Y-112911999D03*
%TD*%
D43*
%TO.C,IC\u002A\u002A*%
X120299999Y-100949999D03*
X120299999Y-101899999D03*
X120299999Y-102849999D03*
X122699999Y-102849999D03*
X122699999Y-100949999D03*
%TD*%
D44*
%TO.C,REF\u002A\u002A*%
X141150000Y-78775000D03*
X141150000Y-81725000D03*
%TD*%
D45*
%TO.C,REF\u002A\u002A*%
X160200000Y-107300000D03*
X160200000Y-109200000D03*
X162075000Y-108250000D03*
%TD*%
D46*
%TO.C,REF\u002A\u002A*%
X136400000Y-79450000D03*
X136400000Y-84550000D03*
%TD*%
D47*
%TO.C,REF\u002A\u002A*%
X139499999Y-105799999D03*
%TD*%
D48*
%TO.C,REF\u002A\u002A*%
X163074999Y-98399999D03*
D49*
X160534999Y-98399999D03*
%TD*%
D50*
%TO.C,REF\u002A\u002A*%
X119199999Y-97849999D03*
X121399999Y-97849999D03*
X121399999Y-96149999D03*
X119199999Y-96149999D03*
%TD*%
D51*
%TO.C,REF\u002A\u002A*%
X154700000Y-82280000D03*
X154700000Y-82920000D03*
%TD*%
D52*
%TO.C,REF\u002A\u002A*%
X121449999Y-111899999D03*
X121449999Y-112399999D03*
X121449999Y-112899999D03*
X122949999Y-112899999D03*
X122949999Y-112399999D03*
X122949999Y-111899999D03*
%TD*%
D53*
%TO.C,REF\u002A\u002A*%
X146550000Y-79350000D03*
X146550000Y-81250000D03*
%TD*%
M02*
